HIERARCHY
ROOT mixamorig:Hips
{
	OFFSET -0.000008 104.274872 1.554316
	CHANNELS 6 Xposition Yposition Zposition Xrotation Yrotation Zrotation
	JOINT mixamorig:Spine
	{
		OFFSET -0.000005 10.181595 0.131519
		CHANNELS 6 Xposition Yposition Zposition Xrotation Yrotation Zrotation
		JOINT mixamorig:Spine1
		{
			OFFSET -0.000000 9.893959 -1.470707
			CHANNELS 6 Xposition Yposition Zposition Xrotation Yrotation Zrotation
			JOINT mixamorig:Spine2
			{
				OFFSET -0.000000 9.220757 -1.370641
				CHANNELS 6 Xposition Yposition Zposition Xrotation Yrotation Zrotation
				JOINT mixamorig:Neck
				{
					OFFSET 0.000001 16.740417 -2.049036
					CHANNELS 6 Xposition Yposition Zposition Xrotation Yrotation Zrotation
					JOINT mixamorig:Head
					{
						OFFSET 0.000000 9.617874 1.685006
						CHANNELS 6 Xposition Yposition Zposition Xrotation Yrotation Zrotation
						JOINT mixamorig:HeadTop_End
						{
							OFFSET 0.000002 22.037354 7.501101
							CHANNELS 6 Xposition Yposition Zposition Xrotation Yrotation Zrotation
							End Site
							{
								OFFSET 0.000168 2310.654297 -282.823242
							}
						}
					}
				}
				JOINT mixamorig:RightShoulder
				{
					OFFSET -4.569970 11.014908 -2.160885
					CHANNELS 6 Xposition Yposition Zposition Xrotation Yrotation Zrotation
					JOINT mixamorig:RightArm
					{
						OFFSET -10.592851 -0.524811 -2.232101
						CHANNELS 6 Xposition Yposition Zposition Xrotation Yrotation Zrotation
						JOINT mixamorig:RightForeArm
						{
							OFFSET -27.841511 0.000031 -0.000004
							CHANNELS 6 Xposition Yposition Zposition Xrotation Yrotation Zrotation
							JOINT mixamorig:RightHand
							{
								OFFSET -28.328831 -0.000015 0.000015
								CHANNELS 6 Xposition Yposition Zposition Xrotation Yrotation Zrotation
								JOINT mixamorig:RightHandThumb1
								{
									OFFSET -2.464806 -1.573990 2.681852
									CHANNELS 6 Xposition Yposition Zposition Xrotation Yrotation Zrotation
									JOINT mixamorig:RightHandThumb2
									{
										OFFSET -3.215179 -1.872803 1.924282
										CHANNELS 6 Xposition Yposition Zposition Xrotation Yrotation Zrotation
										JOINT mixamorig:RightHandThumb3
										{
											OFFSET -2.654831 -1.527969 1.512609
											CHANNELS 6 Xposition Yposition Zposition Xrotation Yrotation Zrotation
											JOINT mixamorig:RightHandThumb4
											{
												OFFSET -2.018814 -1.152008 1.108052
												CHANNELS 6 Xposition Yposition Zposition Xrotation Yrotation Zrotation
												End Site
												{
													OFFSET -188.809540 -114.533607 132.431396
												}
											}
										}
									}
								}
								JOINT mixamorig:RightHandIndex1
								{
									OFFSET -9.108284 -0.517868 2.259835
									CHANNELS 6 Xposition Yposition Zposition Xrotation Yrotation Zrotation
									JOINT mixamorig:RightHandIndex2
									{
										OFFSET -3.699989 0.000000 0.001215
										CHANNELS 6 Xposition Yposition Zposition Xrotation Yrotation Zrotation
										JOINT mixamorig:RightHandIndex3
										{
											OFFSET -2.850006 0.000031 -0.000522
											CHANNELS 6 Xposition Yposition Zposition Xrotation Yrotation Zrotation
											JOINT mixamorig:RightHandIndex4
											{
												OFFSET -2.772186 -0.000015 -0.000020
												CHANNELS 6 Xposition Yposition Zposition Xrotation Yrotation Zrotation
												End Site
												{
													OFFSET -277.218445 0.000000 -0.050231
												}
											}
										}
									}
								}
								JOINT mixamorig:RightHandMiddle1
								{
									OFFSET -9.532516 -0.000031 -0.000023
									CHANNELS 6 Xposition Yposition Zposition Xrotation Yrotation Zrotation
									JOINT mixamorig:RightHandMiddle2
									{
										OFFSET -3.700005 -0.000015 0.003713
										CHANNELS 6 Xposition Yposition Zposition Xrotation Yrotation Zrotation
										JOINT mixamorig:RightHandMiddle3
										{
											OFFSET -2.949974 0.000015 -0.002054
											CHANNELS 6 Xposition Yposition Zposition Xrotation Yrotation Zrotation
											JOINT mixamorig:RightHandMiddle4
											{
												OFFSET -2.946640 0.000000 -0.000156
												CHANNELS 6 Xposition Yposition Zposition Xrotation Yrotation Zrotation
												End Site
												{
													OFFSET -294.664337 0.000000 -0.113670
												}
											}
										}
									}
								}
								JOINT mixamorig:RightHandRing1
								{
									OFFSET -9.103600 -0.043076 -1.865134
									CHANNELS 6 Xposition Yposition Zposition Xrotation Yrotation Zrotation
									JOINT mixamorig:RightHandRing2
									{
										OFFSET -3.379288 0.000000 -0.001055
										CHANNELS 6 Xposition Yposition Zposition Xrotation Yrotation Zrotation
										JOINT mixamorig:RightHandRing3
										{
											OFFSET -2.889687 -0.000015 0.000379
											CHANNELS 6 Xposition Yposition Zposition Xrotation Yrotation Zrotation
											JOINT mixamorig:RightHandRing4
											{
												OFFSET -2.638809 -0.000015 0.000941
												CHANNELS 6 Xposition Yposition Zposition Xrotation Yrotation Zrotation
												End Site
												{
													OFFSET -263.880371 0.000000 0.516020
												}
											}
										}
									}
								}
								JOINT mixamorig:RightHandPinky1
								{
									OFFSET -8.076683 -0.486710 -3.806280
									CHANNELS 6 Xposition Yposition Zposition Xrotation Yrotation Zrotation
									JOINT mixamorig:RightHandPinky2
									{
										OFFSET -3.600014 -0.000015 -0.003747
										CHANNELS 6 Xposition Yposition Zposition Xrotation Yrotation Zrotation
										JOINT mixamorig:RightHandPinky3
										{
											OFFSET -2.099983 0.000000 -0.005739
											CHANNELS 6 Xposition Yposition Zposition Xrotation Yrotation Zrotation
											JOINT mixamorig:RightHandPinky4
											{
												OFFSET -2.115768 -0.000031 -0.003680
												CHANNELS 6 Xposition Yposition Zposition Xrotation Yrotation Zrotation
												End Site
												{
													OFFSET -211.577087 0.000000 -0.350686
												}
											}
										}
									}
								}
							}
						}
					}
				}
				JOINT mixamorig:LeftShoulder
				{
					OFFSET 4.570447 11.014725 -2.160855
					CHANNELS 6 Xposition Yposition Zposition Xrotation Yrotation Zrotation
					JOINT mixamorig:LeftArm
					{
						OFFSET 10.592371 -0.524597 -2.232119
						CHANNELS 6 Xposition Yposition Zposition Xrotation Yrotation Zrotation
						JOINT mixamorig:LeftForeArm
						{
							OFFSET 27.841532 -0.000031 0.000026
							CHANNELS 6 Xposition Yposition Zposition Xrotation Yrotation Zrotation
							JOINT mixamorig:LeftHand
							{
								OFFSET 28.328846 -0.000061 0.000022
								CHANNELS 6 Xposition Yposition Zposition Xrotation Yrotation Zrotation
								JOINT mixamorig:LeftHandThumb1
								{
									OFFSET 2.466141 -1.576172 2.681732
									CHANNELS 6 Xposition Yposition Zposition Xrotation Yrotation Zrotation
									JOINT mixamorig:LeftHandThumb2
									{
										OFFSET 3.217812 -1.872070 1.916482
										CHANNELS 6 Xposition Yposition Zposition Xrotation Yrotation Zrotation
										JOINT mixamorig:LeftHandThumb3
										{
											OFFSET 2.656029 -1.528778 1.514513
											CHANNELS 6 Xposition Yposition Zposition Xrotation Yrotation Zrotation
											JOINT mixamorig:LeftHandThumb4
											{
												OFFSET 2.020889 -1.154053 1.115139
												CHANNELS 6 Xposition Yposition Zposition Xrotation Yrotation Zrotation
												End Site
												{
													OFFSET 190.885437 -115.081749 130.048782
												}
											}
										}
									}
								}
								JOINT mixamorig:LeftHandIndex1
								{
									OFFSET 9.109314 -0.518021 2.259871
									CHANNELS 6 Xposition Yposition Zposition Xrotation Yrotation Zrotation
									JOINT mixamorig:LeftHandIndex2
									{
										OFFSET 3.699989 0.000000 -0.000322
										CHANNELS 6 Xposition Yposition Zposition Xrotation Yrotation Zrotation
										JOINT mixamorig:LeftHandIndex3
										{
											OFFSET 2.850006 0.000000 0.000352
											CHANNELS 6 Xposition Yposition Zposition Xrotation Yrotation Zrotation
											JOINT mixamorig:LeftHandIndex4
											{
												OFFSET 2.774864 -0.000031 -0.000027
												CHANNELS 6 Xposition Yposition Zposition Xrotation Yrotation Zrotation
												End Site
												{
													OFFSET 277.486267 0.000000 -0.009857
												}
											}
										}
									}
								}
								JOINT mixamorig:LeftHandMiddle1
								{
									OFFSET 9.533394 0.000061 0.000044
									CHANNELS 6 Xposition Yposition Zposition Xrotation Yrotation Zrotation
									JOINT mixamorig:LeftHandMiddle2
									{
										OFFSET 3.699989 -0.000015 -0.000231
										CHANNELS 6 Xposition Yposition Zposition Xrotation Yrotation Zrotation
										JOINT mixamorig:LeftHandMiddle3
										{
											OFFSET 2.949997 -0.000015 -0.000059
											CHANNELS 6 Xposition Yposition Zposition Xrotation Yrotation Zrotation
											JOINT mixamorig:LeftHandMiddle4
											{
												OFFSET 2.952896 0.000031 0.000063
												CHANNELS 6 Xposition Yposition Zposition Xrotation Yrotation Zrotation
												End Site
												{
													OFFSET 295.289337 0.000000 0.022810
												}
											}
										}
									}
								}
								JOINT mixamorig:LeftHandRing1
								{
									OFFSET 9.104523 -0.042999 -1.865074
									CHANNELS 6 Xposition Yposition Zposition Xrotation Yrotation Zrotation
									JOINT mixamorig:LeftHandRing2
									{
										OFFSET 3.150009 -0.000031 0.000043
										CHANNELS 6 Xposition Yposition Zposition Xrotation Yrotation Zrotation
										JOINT mixamorig:LeftHandRing3
										{
											OFFSET 2.949982 -0.000015 0.000040
											CHANNELS 6 Xposition Yposition Zposition Xrotation Yrotation Zrotation
											JOINT mixamorig:LeftHandRing4
											{
												OFFSET 2.644348 0.000000 0.000057
												CHANNELS 6 Xposition Yposition Zposition Xrotation Yrotation Zrotation
												End Site
												{
													OFFSET 264.434631 0.000000 0.012105
												}
											}
										}
									}
								}
								JOINT mixamorig:LeftHandPinky1
								{
									OFFSET 8.077789 -0.486847 -3.806259
									CHANNELS 6 Xposition Yposition Zposition Xrotation Yrotation Zrotation
									JOINT mixamorig:LeftHandPinky2
									{
										OFFSET 3.599953 0.000031 0.014727
										CHANNELS 6 Xposition Yposition Zposition Xrotation Yrotation Zrotation
										JOINT mixamorig:LeftHandPinky3
										{
											OFFSET 2.100021 0.000015 0.007705
											CHANNELS 6 Xposition Yposition Zposition Xrotation Yrotation Zrotation
											JOINT mixamorig:LeftHandPinky4
											{
												OFFSET 2.125504 0.000031 0.007517
												CHANNELS 6 Xposition Yposition Zposition Xrotation Yrotation Zrotation
												End Site
												{
													OFFSET 212.550781 0.000000 0.625752
												}
											}
										}
									}
								}
							}
						}
					}
				}
			}
		}
	}
	JOINT mixamorig:RightUpLeg
	{
		OFFSET -8.207787 -6.751648 -1.599560
		CHANNELS 6 Xposition Yposition Zposition Xrotation Yrotation Zrotation
		JOINT mixamorig:RightLeg
		{
			OFFSET -0.000002 -44.370117 0.345942
			CHANNELS 6 Xposition Yposition Zposition Xrotation Yrotation Zrotation
			JOINT mixamorig:RightFoot
			{
				OFFSET 0.000003 -44.423679 -3.043532
				CHANNELS 6 Xposition Yposition Zposition Xrotation Yrotation Zrotation
				JOINT mixamorig:RightToeBase
				{
					OFFSET -0.000002 -8.728671 10.710558
					CHANNELS 6 Xposition Yposition Zposition Xrotation Yrotation Zrotation
					JOINT mixamorig:RightToe_End
					{
						OFFSET -0.000001 -0.000679 9.278119
						CHANNELS 6 Xposition Yposition Zposition Xrotation Yrotation Zrotation
						End Site
						{
							OFFSET 0.000000 -0.067690 927.812134
						}
					}
				}
			}
		}
	}
	JOINT mixamorig:LeftUpLeg
	{
		OFFSET 8.207793 -6.751686 -1.599556
		CHANNELS 6 Xposition Yposition Zposition Xrotation Yrotation Zrotation
		JOINT mixamorig:LeftLeg
		{
			OFFSET -0.000004 -44.370014 0.346954
			CHANNELS 6 Xposition Yposition Zposition Xrotation Yrotation Zrotation
			JOINT mixamorig:LeftFoot
			{
				OFFSET -0.000001 -44.423672 -3.044401
				CHANNELS 6 Xposition Yposition Zposition Xrotation Yrotation Zrotation
				JOINT mixamorig:LeftToeBase
				{
					OFFSET -0.000002 -8.728669 10.710558
					CHANNELS 6 Xposition Yposition Zposition Xrotation Yrotation Zrotation
					JOINT mixamorig:LeftToe_End
					{
						OFFSET -0.000003 -0.000679 9.278133
						CHANNELS 6 Xposition Yposition Zposition Xrotation Yrotation Zrotation
						End Site
						{
							OFFSET 0.000000 -0.068021 927.813477
						}
					}
				}
			}
		}
	}
}
MOTION
Frames: 3
Frame Time: 0.033333
0.000006 104.270477 1.554256 0.000010 0.000003 -0.000113 -0.000005 10.181587 0.131522 0.000001 -0.000003 0.000084 -0.000000 9.893967 -1.470711 0.000001 0.000000 -0.000000 -0.000000 9.220802 -1.370642 0.000000 -0.000000 -0.000000 0.000001 16.740433 -2.049030 0.000000 -0.000000 -0.000000 0.000000 9.617859 1.685014 0.000000 0.000000 0.000000 0.000002 22.037384 7.501101 0.000000 -0.000000 0.000000 -4.569968 11.014880 -2.160881 0.000008 0.000001 -0.000038 -10.592762 -0.524846 -2.231724 76.159512 71.047279 -58.443081 -27.841499 0.000008 0.000578 55.370715 105.244438 -68.963498 -28.328835 0.000007 0.000016 -0.000319 -0.000044 0.000006 -2.464603 -1.574206 2.682213 60.850750 -142.535065 124.830764 -3.215025 -1.873048 1.924457 283.209641 330.585063 332.345967 -2.654717 -1.528263 1.512787 290.619331 -20.356887 -22.742684 -2.018831 -1.151988 1.108059 -0.000001 -0.000002 0.000004 -9.108353 -0.518020 2.260187 276.661867 15.553147 13.883248 -3.700058 -0.000153 0.001588 276.915513 19.098824 16.945914 -2.850065 -0.000144 -0.000186 280.614606 15.331060 12.747970 -2.772160 0.000005 -0.000016 -0.000000 0.000001 0.000002 -9.532541 -0.000203 0.000340 275.103955 12.494472 11.515528 -3.700042 -0.000147 0.004076 274.834436 14.611197 13.386333 -2.950037 -0.000170 -0.001709 277.048346 11.681492 10.329837 -2.946631 -0.000015 -0.000155 -0.000000 -0.000000 0.000003 -9.103650 -0.043201 -1.864774 276.367076 12.252605 10.945289 -3.379314 -0.000172 -0.000690 272.393354 10.593966 10.174275 -2.889746 -0.000143 0.000758 272.598915 7.680102 7.373849 -2.638808 0.000000 0.000939 -0.000003 0.000001 -0.000001 -8.076712 -0.486835 -3.805930 275.879482 14.333096 12.866127 -3.600017 -0.000215 -0.003386 271.027398 7.094207 6.700318 -2.100011 -0.000186 -0.005366 269.946561 3.606100 3.420807 -2.115776 -0.000055 -0.003673 0.000002 0.000003 -0.000003 4.570446 11.014691 -2.160851 -0.000018 0.000010 -0.000021 10.592531 -0.524540 -2.232388 71.671764 -68.249381 52.154682 27.841751 -0.000091 -0.000099 231.123766 -73.493942 245.286901 28.328840 -0.000014 0.000017 0.000018 -0.000089 -0.000000 2.466175 -1.576153 2.681883 48.523723 132.650552 -109.357339 3.217829 -1.871988 1.916547 95.290974 -216.271287 -146.221578 2.656044 -1.528743 1.514616 295.274761 16.921877 20.119340 2.020887 -1.154050 1.115142 0.000003 0.000004 0.000004 9.109292 -0.517877 2.260099 -89.078610 -10.623549 -10.447161 3.699953 0.000130 -0.000094 -86.455906 -17.132384 -16.126833 2.849960 0.000153 0.000599 -83.245908 -14.356089 -12.769553 2.774880 -0.000047 -0.000026 -0.000004 -0.000001 0.000003 9.533392 0.000192 0.000276 -89.073071 -7.076491 -6.957083 3.699962 0.000160 0.000048 270.938578 -13.757720 -13.534670 2.949984 0.000140 0.000164 272.054549 -12.763590 -12.319234 2.952872 -0.000029 0.000071 -0.000001 0.000000 -0.000002 9.104513 -0.042885 -1.864839 -87.212568 -7.470561 -7.117930 3.149974 0.000194 0.000298 -91.756037 -10.274784 -10.594100 2.949952 0.000222 0.000298 267.505452 -9.511552 -9.934146 2.644323 0.000031 0.000044 -0.000001 -0.000000 0.000001 8.077770 -0.486748 -3.806026 -82.555042 -8.009659 -7.383837 3.599955 0.000174 0.014978 -87.085335 -3.954934 -4.130176 2.099986 0.000181 0.007944 269.879543 -3.185112 -3.573182 2.125511 -0.000016 0.007521 -0.000000 -0.000000 0.000000 -8.207786 -6.751667 -1.599560 -0.077001 -0.000003 0.000080 -0.000002 -44.370110 0.345938 0.153719 -0.000000 -0.000000 0.000000 -44.423679 -3.043532 -0.076700 0.000000 -0.000002 -0.000006 -8.728667 10.710559 -0.000009 -0.000000 -0.000000 -0.000001 -0.000679 9.278123 0.000000 -0.000000 -0.000000 8.207792 -6.751710 -1.599556 -0.074518 -0.000003 0.000081 -0.000002 -44.370014 0.346960 0.148822 0.000002 0.000000 -0.000001 -44.423664 -3.044403 -0.074314 0.000000 -0.000002 -0.000004 -8.728671 10.710558 0.000007 -0.000000 -0.000000 0.000000 -0.000680 9.278137 -0.000000 0.000000 -0.000001 
0.000006 104.270477 1.554256 0.000010 0.000003 -0.000113 -0.000005 10.181587 0.131522 0.000001 -0.000003 0.000084 -0.000000 9.893967 -1.470711 0.000001 0.000000 -0.000000 -0.000000 9.220802 -1.370642 0.000000 -0.000000 -0.000000 0.000001 16.740433 -2.049030 0.000000 -0.000000 -0.000000 0.000000 9.617859 1.685014 0.000000 0.000000 0.000000 0.000002 22.037384 7.501101 0.000000 -0.000000 0.000000 -4.569968 11.014880 -2.160881 0.000008 0.000001 -0.000038 -10.592764 -0.524838 -2.231732 74.173361 70.467704 -56.197161 -27.841499 0.000005 0.000582 55.670130 105.178718 -69.239205 -28.328829 0.000006 0.000024 -0.000320 -0.000044 0.000007 -2.464595 -1.574203 2.682222 59.085808 -144.615527 124.720839 -3.215039 -1.873031 1.924475 282.332809 333.662555 332.630622 -2.654763 -1.528266 1.512769 293.831979 -14.713880 -20.405936 -2.018835 -1.152001 1.108069 -0.000003 0.000002 0.000005 -9.108348 -0.518001 2.260203 276.277655 15.954140 14.336697 -3.700050 -0.000130 0.001562 277.191534 19.682985 17.383629 -2.850065 -0.000114 -0.000187 280.899398 14.895888 12.322781 -2.772171 -0.000000 -0.000022 -0.000001 -0.000000 -0.000000 -9.532545 -0.000192 0.000332 275.497702 12.314747 11.273640 -3.700044 -0.000137 0.004070 275.887897 14.609997 13.142489 -2.950037 -0.000191 -0.001709 279.236520 11.728633 9.981098 -2.946627 0.000014 -0.000162 0.000000 0.000001 -0.000002 -9.103645 -0.043190 -1.864772 276.223232 12.329782 11.042222 -3.379313 -0.000187 -0.000677 273.371901 10.898822 10.290274 -2.889762 -0.000165 0.000725 274.556065 8.170294 7.579012 -2.638806 -0.000018 0.000936 -0.000000 -0.000002 -0.000001 -8.076721 -0.486853 -3.805959 277.594133 14.359103 12.510251 -3.600014 -0.000217 -0.003383 271.622143 7.307222 6.839666 -2.100000 -0.000204 -0.005407 270.242718 3.908645 3.705563 -2.115777 -0.000055 -0.003693 0.000000 0.000001 -0.000003 4.570446 11.014691 -2.160851 -0.000018 0.000010 -0.000021 10.592536 -0.524541 -2.232387 71.295591 -69.021882 52.497240 27.841745 -0.000063 -0.000092 232.588924 -71.809201 248.624924 28.328833 -0.000029 0.000030 0.000020 -0.000089 -0.000000 2.466171 -1.576145 2.681890 49.838500 133.064120 -110.718043 3.217833 -1.871994 1.916527 96.804510 -216.248816 -147.108710 2.656075 -1.528754 1.514637 295.270662 18.314276 20.334110 2.020883 -1.154071 1.115146 0.000001 0.000002 0.000003 9.109284 -0.517876 2.260104 -89.714555 -10.468055 -10.408343 3.699952 0.000136 -0.000072 -86.720180 -17.137517 -16.205396 2.849966 0.000149 0.000601 -82.223224 -14.767359 -12.903967 2.774890 -0.000045 -0.000012 0.000002 0.000001 0.000002 9.533385 0.000205 0.000285 -90.005822 -6.998900 -6.993382 3.699953 0.000177 0.000037 271.509636 -13.876316 -13.517244 2.949974 0.000131 0.000180 273.201666 -12.957529 -12.260234 2.952869 -0.000014 0.000063 -0.000001 -0.000001 0.000002 9.104508 -0.042879 -1.864842 -88.471304 -7.466608 -7.271874 3.149976 0.000213 0.000318 -91.928008 -9.489678 -9.814242 2.949956 0.000216 0.000293 267.547170 -8.933830 -9.324300 2.644322 0.000028 0.000038 -0.000001 0.000002 -0.000002 8.077766 -0.486727 -3.806011 -82.953392 -8.163006 -7.570129 3.599936 0.000181 0.015013 -86.205764 -3.893499 -4.010142 2.099987 0.000179 0.007942 270.729984 -2.970220 -3.309980 2.125493 -0.000000 0.007527 -0.000001 0.000002 0.000001 -8.207786 -6.751667 -1.599560 -0.077001 -0.000003 0.000080 -0.000002 -44.370110 0.345938 0.153719 -0.000000 -0.000000 0.000000 -44.423679 -3.043532 -0.076700 0.000000 -0.000002 -0.000006 -8.728667 10.710559 -0.000009 -0.000000 -0.000000 -0.000001 -0.000679 9.278123 0.000000 -0.000000 -0.000000 8.207792 -6.751710 -1.599556 -0.074518 -0.000003 0.000081 -0.000002 -44.370014 0.346960 0.148822 0.000002 0.000000 -0.000001 -44.423664 -3.044403 -0.074314 0.000000 -0.000002 -0.000004 -8.728671 10.710558 0.000007 -0.000000 -0.000000 0.000000 -0.000680 9.278137 -0.000000 0.000000 -0.000001 
0.000006 104.270477 1.554256 0.000010 0.000003 -0.000113 -0.000005 10.181587 0.131522 0.000001 -0.000003 0.000084 -0.000000 9.893967 -1.470711 0.000001 0.000000 -0.000000 -0.000000 9.220802 -1.370642 0.000000 -0.000000 -0.000000 0.000001 16.740433 -2.049030 0.000000 -0.000000 -0.000000 0.000000 9.617859 1.685014 0.000000 0.000000 0.000000 0.000002 22.037384 7.501101 0.000000 -0.000000 0.000000 -4.569968 11.014880 -2.160881 0.000008 0.000001 -0.000038 -10.592763 -0.524844 -2.231729 74.356533 70.485230 -56.370921 -27.841496 -0.000002 0.000583 55.129708 105.600209 -69.034211 -28.328842 0.000021 0.000004 -0.000319 -0.000045 0.000007 -2.464589 -1.574211 2.682223 60.610832 -141.873083 124.302244 -3.215014 -1.873039 1.924500 277.479577 329.667304 329.115015 -2.654747 -1.528263 1.512803 288.672754 -17.916788 -23.091872 -2.018834 -1.151991 1.108062 0.000000 -0.000001 0.000002 -9.108335 -0.518010 2.260192 275.304107 14.592334 13.337076 -3.700063 -0.000128 0.001587 275.196545 19.475270 17.802613 -2.850053 -0.000126 -0.000176 278.169426 14.796848 12.841600 -2.772168 0.000003 -0.000013 0.000000 -0.000001 0.000002 -9.532550 -0.000197 0.000344 273.852965 10.800974 10.187183 -3.700046 -0.000165 0.004093 273.836545 14.886623 13.878521 -2.950032 -0.000181 -0.001707 275.430493 12.386844 11.268566 -2.946626 -0.000003 -0.000154 -0.000003 0.000000 -0.000003 -9.103631 -0.043207 -1.864755 273.793925 10.033918 9.366439 -3.379304 -0.000186 -0.000685 272.034250 9.713898 9.388393 -2.889744 -0.000175 0.000754 271.418986 7.982796 7.822062 -2.638811 -0.000011 0.000935 0.000000 -0.000000 0.000001 -8.076699 -0.486830 -3.805928 274.605625 11.374837 10.412606 -3.599995 -0.000251 -0.003373 270.050981 4.628313 4.336707 -2.099989 -0.000232 -0.005382 268.181859 2.143522 2.012544 -2.115776 -0.000041 -0.003672 -0.000002 -0.000001 -0.000003 4.570446 11.014691 -2.160851 -0.000018 0.000010 -0.000021 10.592535 -0.524541 -2.232387 70.577902 -69.780594 52.537877 27.841734 -0.000066 -0.000095 232.691431 -72.211997 248.350924 28.328831 -0.000029 0.000017 0.000021 -0.000088 0.000000 2.466170 -1.576106 2.681888 48.403423 133.196830 -109.588439 3.217818 -1.871991 1.916552 97.633893 -216.947258 -147.396917 2.656067 -1.528774 1.514613 295.690938 19.596463 20.351602 2.020902 -1.154081 1.115148 0.000001 0.000001 0.000004 9.109291 -0.517847 2.260106 -90.938696 -10.536250 -10.701171 3.699953 0.000152 -0.000059 -87.503630 -17.123131 -16.411966 2.849973 0.000154 0.000581 -82.553587 -14.659365 -12.883462 2.774884 -0.000031 -0.000009 -0.000001 -0.000000 0.000001 9.533394 0.000244 0.000285 -89.969444 -7.042130 -7.032163 3.699969 0.000164 0.000037 270.709193 -13.911021 -13.739941 2.949975 0.000170 0.000182 272.698581 -12.748772 -12.168306 2.952868 -0.000019 0.000051 -0.000002 -0.000001 -0.000001 9.104516 -0.042840 -1.864824 -87.962823 -7.499186 -7.239218 3.149983 0.000217 0.000313 -93.231618 -9.659723 -10.218963 2.949953 0.000200 0.000295 266.279843 -8.950118 -9.549562 2.644317 0.000047 0.000063 0.000005 -0.000001 0.000000 8.077768 -0.486712 -3.806026 -82.381650 -8.244443 -7.565194 3.599954 0.000195 0.014958 -85.786923 -3.779522 -3.875797 2.099991 0.000190 0.007950 271.173181 -2.699488 -3.021209 2.125502 -0.000001 0.007531 -0.000003 -0.000000 0.000000 -8.207786 -6.751667 -1.599560 -0.077001 -0.000003 0.000080 -0.000002 -44.370110 0.345938 0.153719 -0.000000 -0.000000 0.000000 -44.423679 -3.043532 -0.076700 0.000000 -0.000002 -0.000006 -8.728667 10.710559 -0.000009 -0.000000 -0.000000 -0.000001 -0.000679 9.278123 0.000000 -0.000000 -0.000000 8.207792 -6.751710 -1.599556 -0.074518 -0.000003 0.000081 -0.000002 -44.370014 0.346960 0.148822 0.000002 0.000000 -0.000001 -44.423664 -3.044403 -0.074314 0.000000 -0.000002 -0.000004 -8.728671 10.710558 0.000007 -0.000000 -0.000000 0.000000 -0.000680 9.278137 -0.000000 0.000000 -0.000001 
